<svg width="33" height="33" viewBox="0 0 33 33" fill="none" xmlns="http://www.w3.org/2000/svg">
<path fill-rule="evenodd" clip-rule="evenodd" d="M16.5 30.25C8.90588 30.25 2.75 24.0941 2.75 16.5C2.75 8.90588 8.90588 2.75 16.5 2.75C24.0941 2.75 30.25 8.90588 30.25 16.5C30.25 24.0941 24.0941 30.25 16.5 30.25ZM16.5 28.6C19.7091 28.6 22.7868 27.3252 25.056 25.056C27.3252 22.7868 28.6 19.7091 28.6 16.5C28.6 13.2909 27.3252 10.2132 25.056 7.94401C22.7868 5.67482 19.7091 4.4 16.5 4.4C13.2909 4.4 10.2132 5.67482 7.94401 7.94401C5.67482 10.2132 4.4 13.2909 4.4 16.5C4.4 19.7091 5.67482 22.7868 7.94401 25.056C10.2132 27.3252 13.2909 28.6 16.5 28.6ZM14.8885 20.0173L22.8759 12.0312L24.0419 13.1986L15.8606 21.3799C15.6028 21.6376 15.2531 21.7825 14.8885 21.7825C14.5239 21.7825 14.1742 21.6376 13.9164 21.3799L9.625 17.0857L10.7924 15.9184L14.8899 20.0159L14.8885 20.0173Z" fill="white"/>
</svg>
