<svg width="52" height="52" viewBox="0 0 52 52" fill="none" xmlns="http://www.w3.org/2000/svg">
<path fill-rule="evenodd" clip-rule="evenodd" d="M26.0002 47.6666C14.0337 47.6666 4.3335 37.9664 4.3335 25.9999C4.3335 14.0334 14.0337 4.33325 26.0002 4.33325C37.9667 4.33325 47.6668 14.0334 47.6668 25.9999C47.6668 37.9664 37.9667 47.6666 26.0002 47.6666ZM26.0002 45.0666C31.057 45.0666 35.9066 43.0578 39.4823 39.4821C43.058 35.9064 45.0668 31.0567 45.0668 25.9999C45.0668 20.9431 43.058 16.0934 39.4823 12.5177C35.9066 8.94205 31.057 6.93325 26.0002 6.93325C20.9434 6.93325 16.0937 8.94205 12.518 12.5177C8.9423 16.0934 6.9335 20.9431 6.9335 25.9999C6.9335 31.0567 8.9423 35.9064 12.518 39.4821C16.0937 43.0578 20.9434 45.0666 26.0002 45.0666ZM23.4608 31.5422L36.047 18.9583L37.8843 20.7978L24.9927 33.6894C24.5864 34.0956 24.0354 34.3238 23.4608 34.3238C22.8863 34.3238 22.3353 34.0956 21.929 33.6894L15.1668 26.9229L17.0063 25.0834L23.463 31.5401L23.4608 31.5422Z" fill="white"/>
</svg>
