<svg width="34" height="34" viewBox="0 0 34 34" fill="none" xmlns="http://www.w3.org/2000/svg">
<path d="M14.6557 21.7005L15.0076 21.3486L15.3611 21.7023L15.3611 21.7022L15.3628 21.7006L15.7165 21.347L15.7164 21.3469L24.8827 12.1823L25.6176 12.9181L15.856 22.6797C15.856 22.6797 15.856 22.6797 15.8559 22.6797C15.6309 22.9047 15.3258 23.031 15.0076 23.031C14.6894 23.031 14.3842 22.9047 14.1592 22.6797L9.20699 17.7243L9.9433 16.988L14.6557 21.7005ZM17 33.5C7.88704 33.5 0.5 26.113 0.5 17C0.5 7.88704 7.88704 0.5 17 0.5C26.113 0.5 33.5 7.88704 33.5 17C33.5 26.113 26.113 33.5 17 33.5ZM17 32.46C21.1002 32.46 25.0326 30.8312 27.9319 27.9319C30.8312 25.0326 32.46 21.1002 32.46 17C32.46 12.8998 30.8312 8.96744 27.9319 6.06813C25.0326 3.16882 21.1002 1.54 17 1.54C12.8998 1.54 8.96744 3.16882 6.06813 6.06813C3.16882 8.96744 1.54 12.8998 1.54 17C1.54 21.1002 3.16882 25.0326 6.06813 27.9319C8.96744 30.8312 12.8998 32.46 17 32.46Z" stroke="#3975CF"/>
</svg>
