<svg width="27" height="27" viewBox="0 0 27 27" fill="none" xmlns="http://www.w3.org/2000/svg">
<path d="M25.1345 13.0645C25.1384 15.4602 24.4258 17.8023 23.0885 19.79C21.9856 21.4352 20.4942 22.7832 18.7463 23.7149C16.9985 24.6466 15.048 25.1332 13.0673 25.1317C11.0866 25.1332 9.13607 24.6466 7.38821 23.7149C5.64034 22.7832 4.149 21.4352 3.04607 19.79C1.99586 18.2245 1.32703 16.4347 1.09319 14.5641C0.859362 12.6935 1.06703 10.7942 1.69956 9.0183C2.33209 7.24244 3.37188 5.63947 4.73558 4.3379C6.09928 3.03633 7.74895 2.07235 9.55235 1.52325C11.3558 0.974154 13.2627 0.855204 15.1204 1.17594C16.978 1.49667 18.7347 2.24817 20.2496 3.37019C21.7645 4.49221 22.9954 5.95353 23.8437 7.63702C24.692 9.32051 25.1341 11.1793 25.1345 13.0645Z" stroke="white" stroke-width="2"/>
<mask id="path-2-inside-1_8201_498" fill="white">
<path d="M15.0784 9.04202C15.0784 9.57543 14.8665 10.087 14.4893 10.4642C14.1121 10.8413 13.6005 11.0532 13.0671 11.0532V12.394C13.5073 12.394 13.9432 12.3073 14.3499 12.1389C14.7566 11.9704 15.1261 11.7235 15.4374 11.4123C15.7486 11.101 15.9955 10.7315 16.164 10.3248C16.3325 9.9181 16.4192 9.48222 16.4192 9.04202H15.0784ZM13.0671 11.0532C12.5337 11.0532 12.0222 10.8413 11.645 10.4642C11.2678 10.087 11.0559 9.57543 11.0559 9.04202H9.71512C9.71512 9.48222 9.80182 9.9181 9.97028 10.3248C10.1387 10.7315 10.3856 11.101 10.6969 11.4123C11.3255 12.0409 12.1781 12.394 13.0671 12.394V11.0532ZM11.0559 9.04202C11.0559 8.50862 11.2678 7.99706 11.645 7.61988C12.0222 7.24271 12.5337 7.03081 13.0671 7.03081V5.69C12.1781 5.69 11.3255 6.04316 10.6969 6.67179C10.0683 7.30041 9.71512 8.15301 9.71512 9.04202H11.0559ZM13.0671 7.03081C13.6005 7.03081 14.1121 7.24271 14.4893 7.61988C14.8665 7.99706 15.0784 8.50862 15.0784 9.04202H16.4192C16.4192 8.15301 16.066 7.30041 15.4374 6.67179C14.8087 6.04316 13.9561 5.69 13.0671 5.69V7.03081ZM3.90406 20.9162L3.26047 20.7258L3.15723 21.0758L3.39455 21.3533L3.90406 20.9162ZM22.2302 20.9162L22.7397 21.3533L22.9771 21.0758L22.8725 20.7258L22.2302 20.9162ZM9.04471 17.7573H17.0896V16.4165H9.04471V17.7573ZM9.04471 16.4165C7.74528 16.4163 6.4805 16.8356 5.43855 17.612C4.3966 18.3885 3.63182 19.4806 3.26047 20.7258L4.5463 21.108C4.83535 20.1395 5.4293 19.2903 6.23981 18.6866C7.05032 18.0829 8.03407 17.7569 9.04471 17.7573V16.4165ZM13.0671 24.4613C11.4223 24.4631 9.79672 24.1079 8.30248 23.4204C6.80824 22.7329 5.48096 21.7294 4.41222 20.4791L3.39455 21.3533C4.58928 22.7501 6.07273 23.8712 7.74261 24.6392C9.4125 25.4073 11.2291 25.804 13.0671 25.8021V24.4613ZM17.0896 17.7573C18.1004 17.757 19.0843 18.0831 19.8948 18.6871C20.7053 19.2911 21.2992 20.1406 21.588 21.1093L22.8725 20.7258C22.5011 19.4806 21.7377 18.3885 20.6957 17.612C19.6538 16.8356 18.389 16.4163 17.0896 16.4165V17.7573ZM21.7221 20.4791C20.6533 21.7294 19.326 22.7329 17.8318 23.4204C16.3376 24.1079 14.712 24.4631 13.0671 24.4613V25.8021C14.9052 25.804 16.7218 25.4073 18.3917 24.6392C20.0616 23.8712 21.545 22.7501 22.7397 21.3533L21.7221 20.4791Z"/>
</mask>
<path d="M11.5671 11.0532V12.394H14.5671V11.0532H11.5671ZM16.4192 7.54202H15.0784V10.542H16.4192V7.54202ZM11.0559 7.54202H9.71512V10.542H11.0559V7.54202ZM14.5671 7.03081V5.69H11.5671V7.03081H14.5671ZM18.5896 17.7573V16.4165H15.5896V17.7573H18.5896ZM7.54471 16.4165V17.7573H10.5447V16.4165H7.54471ZM14.5671 25.8021V24.4613H11.5671V25.8021H14.5671ZM15.0784 9.04202H18.0784H15.0784ZM13.0671 11.0532V14.0532V11.0532ZM13.0671 12.394V9.39404V12.394ZM16.4192 9.04202H13.4192H16.4192ZM11.0559 9.04202H8.05593H11.0559ZM9.71512 9.04202H6.71512H9.71512ZM13.0671 7.03081V4.03081V7.03081ZM13.0671 5.69V2.69V5.69ZM3.90406 20.9162L5.85741 23.1931L10.0418 19.6034L4.7551 18.0395L3.90406 20.9162ZM3.26047 20.7258L0.385568 19.8685L0.383074 19.8769L3.26047 20.7258ZM3.15723 21.0758L0.279833 20.2269L-0.180786 21.7882L0.877129 23.0254L3.15723 21.0758ZM3.39455 21.3533L1.11445 23.303L1.11475 23.3033L3.39455 21.3533ZM22.2302 20.9162L21.3775 18.0399L16.0953 19.6059L20.2769 23.1932L22.2302 20.9162ZM22.7397 21.3533L25.0195 23.3033L25.0198 23.303L22.7397 21.3533ZM22.9771 21.0758L25.2571 23.0254L26.3195 21.783L25.8514 20.2168L22.9771 21.0758ZM9.04471 17.7573L9.04369 20.7573H9.04471V17.7573ZM17.0896 17.7573V20.7573H17.0903L17.0896 17.7573ZM17.0896 16.4165V19.4165H17.09L17.0896 16.4165ZM9.04471 16.4165L9.04427 19.4165H9.04471V16.4165ZM4.5463 21.108L3.69169 23.9837L6.564 24.8373L7.42099 21.966L4.5463 21.108ZM13.0671 24.4613L13.0703 21.4613L13.0639 21.4613L13.0671 24.4613ZM4.41222 20.4791L6.69263 18.5298L4.73859 16.2439L2.45738 18.2035L4.41222 20.4791ZM13.0671 25.8021L13.0702 22.8021L13.064 22.8021L13.0671 25.8021ZM21.588 21.1093L18.713 21.9664L19.5705 24.8424L22.4462 23.9839L21.588 21.1093ZM21.7221 20.4791L23.6769 18.2035L21.3957 16.2439L19.4416 18.5298L21.7221 20.4791ZM12.0784 9.04202C12.0784 8.77978 12.1825 8.52828 12.368 8.34284L16.6106 12.5855C17.5504 11.6457 18.0784 10.3711 18.0784 9.04202H12.0784ZM12.368 8.34284C12.5534 8.15741 12.8049 8.05323 13.0671 8.05323V14.0532C14.3962 14.0532 15.6708 13.5253 16.6106 12.5855L12.368 8.34284ZM13.0671 15.394C13.9013 15.394 14.7273 15.2297 15.498 14.9105L13.2019 9.36725C13.1591 9.38494 13.1134 9.39404 13.0671 9.39404V15.394ZM15.498 14.9105C16.2686 14.5913 16.9689 14.1234 17.5587 13.5336L13.3161 9.29094C13.2834 9.32363 13.2446 9.34956 13.2019 9.36725L15.498 14.9105ZM17.5587 13.5336C18.1485 12.9437 18.6164 12.2435 18.9356 11.4728L13.3924 9.17674C13.3747 9.21944 13.3487 9.25825 13.3161 9.29094L17.5587 13.5336ZM18.9356 11.4728C19.2549 10.7022 19.4192 9.87618 19.4192 9.04202H13.4192C13.4192 9.08825 13.4101 9.13403 13.3924 9.17674L18.9356 11.4728ZM13.0671 8.05323C13.3294 8.05323 13.5809 8.15741 13.7663 8.34284L9.52368 12.5855C10.4635 13.5253 11.7381 14.0532 13.0671 14.0532V8.05323ZM13.7663 8.34284C13.9518 8.52828 14.0559 8.77978 14.0559 9.04202H8.05593C8.05593 10.3711 8.58389 11.6457 9.52368 12.5855L13.7663 8.34284ZM6.71512 9.04202C6.71512 9.87618 6.87942 10.7022 7.19864 11.4728L12.7419 9.17674C12.7242 9.13403 12.7151 9.08825 12.7151 9.04202H6.71512ZM7.19864 11.4728C7.51786 12.2435 7.98574 12.9437 8.57558 13.5336L12.8182 9.29094C12.7855 9.25825 12.7596 9.21944 12.7419 9.17674L7.19864 11.4728ZM8.57558 13.5336C9.76682 14.7248 11.3825 15.394 13.0671 15.394V9.39404C12.9738 9.39404 12.8842 9.35695 12.8182 9.29094L8.57558 13.5336ZM14.0559 9.04202C14.0559 9.30426 13.9518 9.55577 13.7663 9.7412L9.52368 5.49856C8.58389 6.43835 8.05593 7.71297 8.05593 9.04202H14.0559ZM13.7663 9.7412C13.5809 9.92664 13.3294 10.0308 13.0671 10.0308V4.03081C11.7381 4.03081 10.4635 4.55877 9.52368 5.49856L13.7663 9.7412ZM13.0671 2.69C11.3825 2.69 9.76682 3.35923 8.57558 4.55047L12.8182 8.79311C12.8842 8.72709 12.9738 8.69 13.0671 8.69V2.69ZM8.57558 4.55047C7.38435 5.7417 6.71512 7.35736 6.71512 9.04202H12.7151C12.7151 8.94866 12.7522 8.85912 12.8182 8.79311L8.57558 4.55047ZM13.0671 10.0308C12.8049 10.0308 12.5534 9.92664 12.368 9.7412L16.6106 5.49856C15.6708 4.55877 14.3962 4.03081 13.0671 4.03081V10.0308ZM12.368 9.7412C12.1825 9.55577 12.0784 9.30426 12.0784 9.04202H18.0784C18.0784 7.71297 17.5504 6.43835 16.6106 5.49856L12.368 9.7412ZM19.4192 9.04202C19.4192 7.35736 18.7499 5.7417 17.5587 4.55047L13.3161 8.79311C13.3821 8.85912 13.4192 8.94866 13.4192 9.04202H19.4192ZM17.5587 4.55047C16.3675 3.35923 14.7518 2.69 13.0671 2.69V8.69C13.1605 8.69 13.25 8.72709 13.3161 8.79311L17.5587 4.55047ZM4.7551 18.0395L4.11151 17.8491L2.40943 23.6026L3.05301 23.793L4.7551 18.0395ZM0.383074 19.8769L0.279833 20.2269L6.03462 21.9247L6.13786 21.5747L0.383074 19.8769ZM0.877129 23.0254L1.11445 23.303L5.67465 19.4037L5.43732 19.1261L0.877129 23.0254ZM5.3479 23.6302L5.85741 23.1931L1.9507 18.6393L1.44119 19.0764L5.3479 23.6302ZM20.2769 23.1932L20.7864 23.6303L24.6931 19.0764L24.1836 18.6393L20.2769 23.1932ZM25.0198 23.303L25.2571 23.0254L20.697 19.1261L20.4596 19.4037L25.0198 23.303ZM25.8514 20.2168L25.7469 19.8668L19.9981 21.5848L20.1027 21.9348L25.8514 20.2168ZM22.0198 17.8496L21.3775 18.0399L23.0829 23.7925L23.7251 23.6021L22.0198 17.8496ZM9.04471 20.7573H17.0896V14.7573H9.04471V20.7573ZM17.0896 13.4165H9.04471V19.4165H17.0896V13.4165ZM9.04516 13.4165C7.09963 13.4162 5.20599 14.044 3.64597 15.2065L7.23114 20.0176C7.75501 19.6272 8.39093 19.4164 9.04427 19.4165L9.04516 13.4165ZM3.64597 15.2065C2.08739 16.3679 0.942086 18.0024 0.385581 19.8685L6.13536 21.5832C6.32155 20.9588 6.70581 20.4091 7.23114 20.0176L3.64597 15.2065ZM2.40586 23.6015L3.69169 23.9837L5.40092 18.2323L4.11508 17.8501L2.40586 23.6015ZM7.42099 21.966C7.52526 21.6166 7.73951 21.3103 8.03189 21.0925L4.44774 16.2806C3.11909 17.2703 2.14544 18.6624 1.67161 20.25L7.42099 21.966ZM8.03189 21.0925C8.32426 20.8747 8.67913 20.7571 9.04369 20.7573L9.04574 14.7573C7.38902 14.7567 5.77638 15.291 4.44774 16.2806L8.03189 21.0925ZM13.0639 21.4613C11.8531 21.4626 10.6564 21.2012 9.55644 20.6951L7.04852 26.1458C8.93701 27.0147 10.9915 27.4635 13.0703 27.4613L13.0639 21.4613ZM9.55644 20.6951C8.45646 20.189 7.47938 19.4502 6.69263 18.5298L2.13181 22.4284C3.48254 24.0086 5.16003 25.2769 7.04852 26.1458L9.55644 20.6951ZM2.45738 18.2035L1.43971 19.0777L5.34939 23.629L6.36706 22.7548L2.45738 18.2035ZM1.11475 23.3033C2.59145 25.0298 4.42502 26.4154 6.48903 27.3648L8.99619 21.9137C7.72043 21.3269 6.5871 20.4704 5.67435 19.4033L1.11475 23.3033ZM6.48903 27.3648C8.55304 28.3141 10.7984 28.8045 13.0702 28.8021L13.064 22.8021C11.6598 22.8036 10.272 22.5005 8.99619 21.9137L6.48903 27.3648ZM17.0903 20.7573C17.455 20.7572 17.8099 20.8748 18.1023 21.0927L21.6873 16.2815C20.3586 15.2915 18.7458 14.7568 17.0888 14.7573L17.0903 20.7573ZM18.1023 21.0927C18.3946 21.3106 18.6088 21.617 18.713 21.9664L24.4629 20.2522C23.9895 18.6642 23.016 17.2716 21.6873 16.2815L18.1023 21.0927ZM22.4462 23.9839L23.7307 23.6005L22.0143 17.8512L20.7298 18.2347L22.4462 23.9839ZM25.7474 19.8685C25.1914 18.0041 24.0483 16.369 22.4883 15.2065L18.9031 20.0176C19.427 20.408 19.8109 20.9571 19.9976 21.5832L25.7474 19.8685ZM22.4883 15.2065C20.9283 14.044 19.0346 13.4162 17.0891 13.4165L17.09 19.4165C17.7433 19.4164 18.3793 19.6272 18.9031 20.0176L22.4883 15.2065ZM19.4416 18.5298C18.6549 19.4502 17.6778 20.189 16.5778 20.6951L19.0858 26.1458C20.9742 25.2769 22.6517 24.0086 24.0025 22.4284L19.4416 18.5298ZM16.5778 20.6951C15.4779 21.2012 14.2812 21.4626 13.0703 21.4613L13.0639 27.4613C15.1427 27.4635 17.1973 27.0147 19.0858 26.1458L16.5778 20.6951ZM13.064 28.8021C15.3359 28.8045 17.5812 28.3141 19.6452 27.3648L17.1381 21.9137C15.8623 22.5005 14.4745 22.8036 13.0702 22.8021L13.064 28.8021ZM19.6452 27.3648C21.7093 26.4154 23.5428 25.0298 25.0195 23.3033L20.4599 19.4033C19.5472 20.4704 18.4138 21.3269 17.1381 21.9137L19.6452 27.3648ZM24.6946 19.0777L23.6769 18.2035L19.7672 22.7548L20.7849 23.629L24.6946 19.0777Z" fill="white" mask="url(#path-2-inside-1_8201_498)"/>
</svg>
