<svg width="44" height="44" viewBox="0 0 44 44" fill="none" xmlns="http://www.w3.org/2000/svg">
<path d="M42.1345 21.5625C42.141 25.6457 40.9266 29.6376 38.6472 33.0253C36.7674 35.8294 34.2256 38.127 31.2466 39.7149C28.2675 41.3029 24.9431 42.1323 21.5673 42.1298C18.1914 42.1323 14.867 41.3029 11.888 39.7149C8.90892 38.127 6.3671 35.8294 4.4873 33.0253C2.69733 30.3571 1.55738 27.3066 1.15884 24.1184C0.760299 20.9302 1.11425 17.693 2.19232 14.6663C3.2704 11.6395 5.0426 8.90744 7.36687 6.68906C9.69113 4.47068 12.5028 2.8277 15.5765 1.89183C18.6502 0.955949 21.9004 0.753212 25.0665 1.29987C28.2327 1.84652 31.2268 3.12736 33.8087 5.03971C36.3906 6.95206 38.4886 9.44272 39.9344 12.312C41.3803 15.1813 42.1338 18.3495 42.1345 21.5625Z" stroke="white" stroke-width="2"/>
<mask id="path-2-inside-1_8214_562" fill="white">
<path d="M24.9954 14.7068C24.9954 15.6159 24.6343 16.4878 23.9914 17.1307C23.3486 17.7735 22.4767 18.1347 21.5675 18.1347V20.4199C22.3178 20.4199 23.0607 20.2721 23.7539 19.985C24.447 19.6979 25.0768 19.2771 25.6073 18.7466C26.1378 18.2161 26.5587 17.5863 26.8458 16.8931C27.1329 16.2 27.2807 15.457 27.2807 14.7068H24.9954ZM21.5675 18.1347C20.6584 18.1347 19.7865 17.7735 19.1437 17.1307C18.5008 16.4878 18.1397 15.6159 18.1397 14.7068H15.8544C15.8544 15.457 16.0022 16.2 16.2893 16.8931C16.5764 17.5863 16.9972 18.2161 17.5277 18.7466C18.5992 19.818 20.0523 20.4199 21.5675 20.4199V18.1347ZM18.1397 14.7068C18.1397 13.7977 18.5008 12.9258 19.1437 12.2829C19.7865 11.6401 20.6584 11.2789 21.5675 11.2789V8.99365C20.0523 8.99365 18.5992 9.59557 17.5277 10.667C16.4563 11.7384 15.8544 13.1916 15.8544 14.7068H18.1397ZM21.5675 11.2789C22.4767 11.2789 23.3486 11.6401 23.9914 12.2829C24.6343 12.9258 24.9954 13.7977 24.9954 14.7068H27.2807C27.2807 13.1916 26.6788 11.7384 25.6073 10.667C24.5359 9.59557 23.0828 8.99365 21.5675 8.99365V11.2789ZM5.95013 34.945L4.85321 34.6205L4.67725 35.2169L5.08173 35.69L5.95013 34.945ZM37.185 34.945L38.0534 35.69L38.4578 35.2169L38.2796 34.6205L37.185 34.945ZM14.7118 29.5609H28.4233V27.2757H14.7118V29.5609ZM14.7118 27.2757C12.497 27.2753 10.3414 27.99 8.5655 29.3134C6.78962 30.6368 5.48613 32.4981 4.85321 34.6205L7.04477 35.2718C7.53741 33.6212 8.54974 32.1738 9.93116 31.1448C11.3126 30.1158 12.9893 29.5603 14.7118 29.5609V27.2757ZM21.5675 40.9872C18.7642 40.9902 15.9935 40.3849 13.4467 39.2131C10.9 38.0413 8.63778 36.3309 6.81624 34.2L5.08173 35.69C7.11801 38.0706 9.64638 39.9814 12.4925 41.2904C15.3386 42.5995 18.4348 43.2757 21.5675 43.2724V40.9872ZM28.4233 29.5609C30.1461 29.5605 31.823 30.1163 33.2045 31.1457C34.5859 32.1751 35.5981 33.6231 36.0903 35.274L38.2796 34.6205C37.6467 32.4981 36.3455 30.6368 34.5696 29.3134C32.7937 27.99 30.638 27.2753 28.4233 27.2757V29.5609ZM36.3188 34.2C34.4973 36.3309 32.2351 38.0413 29.6884 39.2131C27.1416 40.3849 24.3709 40.9902 21.5675 40.9872V43.2724C24.7003 43.2757 27.7964 42.5995 30.6426 41.2904C33.4887 39.9814 36.0171 38.0706 38.0534 35.69L36.3188 34.2Z"/>
</mask>
<path d="M20.0675 18.1347V20.4199H23.0675V18.1347H20.0675ZM27.2807 13.2068H24.9954V16.2068H27.2807V13.2068ZM18.1397 13.2068H15.8544V16.2068H18.1397V13.2068ZM23.0675 11.2789V8.99365H20.0675V11.2789H23.0675ZM29.9233 29.5609V27.2757H26.9233V29.5609H29.9233ZM13.2118 27.2757V29.5609H16.2118V27.2757H13.2118ZM23.0675 43.2724V40.9872H20.0675V43.2724H23.0675ZM24.9954 14.7068H27.9954H24.9954ZM21.5675 18.1347V21.1347V18.1347ZM21.5675 20.4199V17.4199V20.4199ZM27.2807 14.7068H24.2807H27.2807ZM18.1397 14.7068H15.1397H18.1397ZM15.8544 14.7068H12.8544H15.8544ZM21.5675 11.2789V8.2789V11.2789ZM21.5675 8.99365V5.99365V8.99365ZM5.95013 34.945L7.90349 37.2219L12.0878 33.6322L6.80117 32.0682L5.95013 34.945ZM4.85321 34.6205L1.97831 33.7631L1.97582 33.7716L4.85321 34.6205ZM4.67725 35.2169L1.79985 34.368L1.33923 35.9294L2.39715 37.1666L4.67725 35.2169ZM5.08173 35.69L2.80164 37.6396L2.80193 37.64L5.08173 35.69ZM37.185 34.945L36.3323 32.0687L31.0501 33.6346L35.2316 37.2219L37.185 34.945ZM38.0534 35.69L40.3332 37.64L40.3334 37.6396L38.0534 35.69ZM38.4578 35.2169L40.7379 37.1666L41.8003 35.9242L41.3322 34.3579L38.4578 35.2169ZM14.7118 29.5609L14.7108 32.5609H14.7118V29.5609ZM28.4233 29.5609V32.5609H28.4241L28.4233 29.5609ZM28.4233 27.2757V30.2757H28.4237L28.4233 27.2757ZM14.7118 27.2757L14.7113 30.2757H14.7118V27.2757ZM7.04477 35.2718L6.19015 38.1475L9.06247 39.0011L9.91946 36.1298L7.04477 35.2718ZM21.5675 40.9872L21.5707 37.9872L21.5643 37.9872L21.5675 40.9872ZM6.81624 34.2L9.09665 32.2507L7.14261 29.9647L4.8614 31.9243L6.81624 34.2ZM21.5675 43.2724L21.5707 40.2724L21.5644 40.2724L21.5675 43.2724ZM36.0903 35.274L33.2154 36.1312L34.0728 39.0072L36.9485 38.1487L36.0903 35.274ZM36.3188 34.2L38.2737 31.9243L35.9925 29.9647L34.0384 32.2507L36.3188 34.2ZM21.9954 14.7068C21.9954 14.8203 21.9503 14.9291 21.8701 15.0093L26.1127 19.252C27.3182 18.0465 27.9954 16.4116 27.9954 14.7068H21.9954ZM21.8701 15.0093C21.7899 15.0896 21.681 15.1347 21.5675 15.1347V21.1347C23.2723 21.1347 24.9073 20.4574 26.1127 19.252L21.8701 15.0093ZM21.5675 23.4199C22.7118 23.4199 23.8448 23.1945 24.9019 22.7567L22.6058 17.2134C22.2766 17.3497 21.9238 17.4199 21.5675 17.4199V23.4199ZM24.9019 22.7567C25.959 22.3188 26.9196 21.677 27.7287 20.8679L23.486 16.6253C23.2341 16.8772 22.935 17.077 22.6058 17.2134L24.9019 22.7567ZM27.7287 20.8679C28.5377 20.0588 29.1795 19.0983 29.6174 18.0412L24.0741 15.7451C23.9378 16.0742 23.738 16.3733 23.486 16.6253L27.7287 20.8679ZM29.6174 18.0412C30.0553 16.984 30.2807 15.851 30.2807 14.7068H24.2807C24.2807 15.0631 24.2105 15.4159 24.0741 15.7451L29.6174 18.0412ZM21.5675 15.1347C21.4541 15.1347 21.3452 15.0896 21.265 15.0093L17.0223 19.252C18.2278 20.4574 19.8628 21.1347 21.5675 21.1347V15.1347ZM21.265 15.0093C21.1847 14.9291 21.1397 14.8203 21.1397 14.7068H15.1397C15.1397 16.4116 15.8169 18.0465 17.0223 19.252L21.265 15.0093ZM12.8544 14.7068C12.8544 15.851 13.0798 16.984 13.5177 18.0412L19.0609 15.7451C18.9246 15.4159 18.8544 15.0631 18.8544 14.7068H12.8544ZM13.5177 18.0412C13.9555 19.0983 14.5973 20.0588 15.4064 20.8679L19.6491 16.6253C19.3971 16.3733 19.1973 16.0742 19.0609 15.7451L13.5177 18.0412ZM15.4064 20.8679C17.0405 22.5019 19.2567 23.4199 21.5675 23.4199V17.4199C20.848 17.4199 20.1579 17.1341 19.6491 16.6253L15.4064 20.8679ZM21.1397 14.7068C21.1397 14.5933 21.1847 14.4845 21.265 14.4042L17.0223 10.1616C15.8169 11.367 15.1397 13.002 15.1397 14.7068H21.1397ZM21.265 14.4042C21.3452 14.324 21.4541 14.2789 21.5675 14.2789V8.2789C19.8628 8.2789 18.2278 8.95612 17.0223 10.1616L21.265 14.4042ZM21.5675 5.99365C19.2567 5.99365 17.0405 6.91164 15.4064 8.54567L19.6491 12.7883C20.1579 12.2795 20.848 11.9937 21.5675 11.9937V5.99365ZM15.4064 8.54567C13.7724 10.1797 12.8544 12.3959 12.8544 14.7068H18.8544C18.8544 13.9872 19.1403 13.2971 19.6491 12.7883L15.4064 8.54567ZM21.5675 14.2789C21.681 14.2789 21.7899 14.324 21.8701 14.4042L26.1127 10.1616C24.9073 8.95612 23.2723 8.2789 21.5675 8.2789V14.2789ZM21.8701 14.4042C21.9503 14.4845 21.9954 14.5933 21.9954 14.7068H27.9954C27.9954 13.002 27.3182 11.367 26.1127 10.1616L21.8701 14.4042ZM30.2807 14.7068C30.2807 12.3959 29.3627 10.1797 27.7287 8.54567L23.486 12.7883C23.9948 13.2971 24.2807 13.9872 24.2807 14.7068H30.2807ZM27.7287 8.54567C26.0946 6.91164 23.8784 5.99365 21.5675 5.99365V11.9937C22.2871 11.9937 22.9772 12.2795 23.486 12.7883L27.7287 8.54567ZM6.80117 32.0682L5.70425 31.7437L4.00217 37.4972L5.09909 37.8217L6.80117 32.0682ZM1.97582 33.7716L1.79985 34.368L7.55464 36.0658L7.7306 35.4694L1.97582 33.7716ZM2.39715 37.1666L2.80164 37.6396L7.36183 33.7403L6.95734 33.2673L2.39715 37.1666ZM7.03509 37.9669L7.90349 37.2219L3.99678 32.668L3.12838 33.413L7.03509 37.9669ZM35.2316 37.2219L36.1 37.9669L40.0067 33.413L39.1383 32.668L35.2316 37.2219ZM40.3334 37.6396L40.7379 37.1666L36.1777 33.2673L35.7733 33.7403L40.3334 37.6396ZM41.3322 34.3579L41.154 33.7614L35.4052 35.4795L35.5835 36.0759L41.3322 34.3579ZM37.4269 31.7442L36.3323 32.0687L38.0376 37.8212L39.1323 37.4967L37.4269 31.7442ZM14.7118 32.5609H28.4233V26.5609H14.7118V32.5609ZM28.4233 24.2757H14.7118V30.2757H28.4233V24.2757ZM14.7122 24.2757C11.8514 24.2752 9.06687 25.1984 6.77291 26.9078L10.3581 31.7189C11.6159 30.7816 13.1427 30.2754 14.7113 30.2757L14.7122 24.2757ZM6.77291 26.9078C4.48041 28.6162 2.7964 31.0199 1.97832 33.7631L7.7281 35.4778C8.17587 33.9763 9.09882 32.6573 10.3581 31.7189L6.77291 26.9078ZM3.9986 37.4962L6.19015 38.1475L7.89938 32.3961L5.70782 31.7448L3.9986 37.4962ZM9.91946 36.1298C10.2273 35.0983 10.8599 34.1937 11.7232 33.5507L8.13908 28.7389C6.23953 30.1538 4.8475 32.1441 4.17008 34.4138L9.91946 36.1298ZM11.7232 33.5507C12.5865 32.9077 13.6343 32.5606 14.7108 32.5609L14.7128 26.5609C12.3442 26.5601 10.0386 27.324 8.13908 28.7389L11.7232 33.5507ZM21.5643 37.9872C19.1949 37.9897 16.8532 37.4781 14.7007 36.4877L12.1928 41.9385C15.1338 43.2916 18.3334 43.9906 21.5707 43.9872L21.5643 37.9872ZM14.7007 36.4877C12.5482 35.4974 10.6362 34.0518 9.09665 32.2507L4.53583 36.1493C6.63936 38.6101 9.25177 40.5853 12.1928 41.9385L14.7007 36.4877ZM4.8614 31.9243L3.1269 33.4143L7.03657 37.9656L8.77108 36.4756L4.8614 31.9243ZM2.80193 37.64C5.12019 40.3503 7.99867 42.5256 11.2389 44.016L13.7461 38.5649C11.2941 37.4371 9.11584 35.791 7.36154 33.74L2.80193 37.64ZM11.2389 44.016C14.4792 45.5063 18.0041 46.2761 21.5707 46.2724L21.5644 40.2724C18.8655 40.2752 16.1981 39.6927 13.7461 38.5649L11.2389 44.016ZM28.4241 32.5609C29.5007 32.5606 30.5486 32.908 31.4119 33.5513L34.997 28.7401C33.0974 27.3246 30.7915 26.5603 28.4225 26.5609L28.4241 32.5609ZM31.4119 33.5513C32.2752 34.1946 32.9078 35.0994 33.2154 36.1312L38.9653 34.4169C38.2884 32.1467 36.8966 30.1556 34.997 28.7401L31.4119 33.5513ZM36.9485 38.1487L39.1378 37.4951L37.4214 31.7458L35.2321 32.3994L36.9485 38.1487ZM41.1545 33.7631C40.3369 31.0216 38.6561 28.6173 36.3622 26.9078L32.777 31.7189C34.0348 32.6562 34.9564 33.9746 35.4047 35.4778L41.1545 33.7631ZM36.3622 26.9078C34.0682 25.1984 31.2837 24.2752 28.4229 24.2757L28.4237 30.2757C29.9924 30.2754 31.5192 30.7816 32.777 31.7189L36.3622 26.9078ZM34.0384 32.2507C32.4989 34.0518 30.5869 35.4974 28.4344 36.4877L30.9423 41.9385C33.8833 40.5853 36.4957 38.6101 38.5993 36.1493L34.0384 32.2507ZM28.4344 36.4877C26.2819 37.4781 23.9401 37.9897 21.5707 37.9872L21.5643 43.9872C24.8017 43.9906 28.0013 43.2916 30.9423 41.9385L28.4344 36.4877ZM21.5644 46.2724C25.131 46.2761 28.6559 45.5063 31.8962 44.016L29.389 38.5649C26.937 39.6927 24.2696 40.2752 21.5707 40.2724L21.5644 46.2724ZM31.8962 44.016C35.1364 42.5256 38.0149 40.3503 40.3332 37.64L35.7735 33.74C34.0192 35.791 31.841 37.4371 29.389 38.5649L31.8962 44.016ZM40.0082 33.4143L38.2737 31.9243L34.364 36.4756L36.0985 37.9656L40.0082 33.4143Z" fill="white" mask="url(#path-2-inside-1_8214_562)"/>
</svg>
